<svg xmlns="http://www.w3.org/2000/svg" width="33.594" height="41.871" viewBox="0 0 33.594 41.871">
  <g id="documents-symbol" transform="translate(-25.361)">
    <g id="_x38_7_36_" transform="translate(25.362)">
      <g id="그룹_1177" data-name="그룹 1177" transform="translate(0)">
        <path id="패스_1905" data-name="패스 1905" d="M56.558,112.533a.869.869,0,0,0,0,1.737H69.917a.869.869,0,0,0,0-1.737Z" transform="translate(-50.766 -94.171)" fill="#8230d4"/>
        <path id="패스_1906" data-name="패스 1906" d="M69.917,137.7H56.558a.868.868,0,0,0,0,1.735H69.917A.868.868,0,0,0,69.917,137.7Z" transform="translate(-50.766 -115.235)" fill="#8230d4"/>
        <path id="패스_1907" data-name="패스 1907" d="M69.917,161.018H56.558a.868.868,0,0,0,0,1.735H69.917A.868.868,0,0,0,69.917,161.018Z" transform="translate(-50.766 -134.745)" fill="#8230d4"/>
        <path id="패스_1908" data-name="패스 1908" d="M69.917,186.184H56.558a.868.868,0,0,0,0,1.734H69.917A.868.868,0,0,0,69.917,186.184Z" transform="translate(-50.766 -155.805)" fill="#8230d4"/>
        <path id="패스_1909" data-name="패스 1909" d="M68.344,209.934H54.982a.868.868,0,0,0,0,1.735H68.344A.868.868,0,0,0,68.344,209.934Z" transform="translate(-49.448 -175.68)" fill="#8230d4"/>
        <path id="패스_1910" data-name="패스 1910" d="M25.362,58.087V90.48H50.307v-27.9l-4.635-4.494ZM48.151,88.323H27.52V60.244H44.561v3.422h3.588V88.323Z" transform="translate(-25.362 -48.609)" fill="#8230d4"/>
        <path id="패스_1911" data-name="패스 1911" d="M51.2,27.667v3.749h2.158V29.823H70.4v3.422h3.589V57.9h-.948v2.157h3.1V32.16l-4.635-4.493Z" transform="translate(-46.987 -23.153)" fill="#8230d4"/>
        <path id="패스_1912" data-name="패스 1912" d="M98.673,0H78.363V3.75H80.52V2.157H97.563V5.578h3.589V30.236H100.2v2.157h3.1V4.494Z" transform="translate(-69.715)" fill="#8230d4"/>
      </g>
    </g>
  </g>
</svg>
