<svg xmlns="http://www.w3.org/2000/svg" width="42.494" height="34.648" viewBox="0 0 42.494 34.648">
  <g id="list" transform="translate(0.715 -34.404)">
    <g id="그룹_985" data-name="그룹 985" transform="translate(-0.714 34.448)">
      <g id="그룹_984" data-name="그룹 984" transform="translate(0 0)">
        <rect id="사각형_2943" data-name="사각형 2943" width="5" height="5" transform="translate(0 -0.043)" fill="#8230d4"/>
      </g>
    </g>
    <g id="그룹_987" data-name="그룹 987" transform="translate(9.57 34.448)">
      <g id="그룹_986" data-name="그룹 986" transform="translate(0 0)">
        <rect id="사각형_2944" data-name="사각형 2944" width="29" height="5" transform="translate(-0.284 -0.043)" fill="#8230d4"/>
      </g>
    </g>
    <g id="그룹_989" data-name="그룹 989" transform="translate(-0.714 43.705)">
      <g id="그룹_988" data-name="그룹 988" transform="translate(0 0)">
        <rect id="사각형_2945" data-name="사각형 2945" width="5" height="5" transform="translate(0 -0.3)" fill="#8230d4"/>
      </g>
    </g>
    <g id="그룹_991" data-name="그룹 991" transform="translate(9.658 43.824)">
      <g id="그룹_990" data-name="그룹 990" transform="translate(0 0)">
        <path id="패스_1850" data-name="패스 1850" d="M96,130.344v4.818h10.58a12.861,12.861,0,0,1,3.428-4.818Z" transform="translate(-95.999 -130.344)" fill="#8230d4"/>
      </g>
    </g>
    <g id="그룹_993" data-name="그룹 993" transform="translate(9.658 53.461)">
      <g id="그룹_992" data-name="그룹 992">
        <path id="패스_1851" data-name="패스 1851" d="M105.636,226.344H96v4.818h10.58A12.784,12.784,0,0,1,105.636,226.344Z" transform="translate(-95.999 -226.344)" fill="#8230d4"/>
      </g>
    </g>
    <g id="그룹_995" data-name="그룹 995" transform="translate(-0.714 52.987)">
      <g id="그룹_994" data-name="그룹 994" transform="translate(0 0)">
        <rect id="사각형_2946" data-name="사각형 2946" width="5" height="5" transform="translate(0 0.416)" fill="#8230d4"/>
      </g>
    </g>
    <g id="그룹_997" data-name="그룹 997" transform="translate(16.553 43.824)">
      <g id="그룹_996" data-name="그룹 996" transform="translate(0 0)">
        <path id="패스_1852" data-name="패스 1852" d="M180.278,130.344a9.627,9.627,0,0,0-7.849,15.215l-7.742,7.742,2.271,2.271,7.742-7.742a9.634,9.634,0,1,0,5.578-17.486Zm0,16.062a6.425,6.425,0,1,1,6.425-6.425A6.431,6.431,0,0,1,180.278,146.406Z" transform="translate(-164.687 -130.344)" fill="#8230d4"/>
      </g>
    </g>
  </g>
</svg>
