<svg xmlns="http://www.w3.org/2000/svg" width="43.08" height="36.996" viewBox="0 0 43.08 36.996">
  <g id="Icon_ionic-md-paper" data-name="Icon ionic-md-paper" transform="translate(-2 -4.25)">
    <path id="패스_1865" data-name="패스 1865" d="M43.309,4.5H17.457a1.567,1.567,0,0,0-1.521,1.568V9.062H6.242A4,4,0,0,0,2.25,13.054V32.775A8.239,8.239,0,0,0,10.424,41H37.007A7.841,7.841,0,0,0,44.829,33.2V6.021A1.525,1.525,0,0,0,43.309,4.5ZM15.936,12.1V30.352H11.944V13.928a4.641,4.641,0,0,0-.314-1.825ZM14.321,36.378a5.613,5.613,0,0,1-3.849,1.578,5.192,5.192,0,0,1-5.18-5.18V13.928a1.806,1.806,0,1,1,3.612,0V31.872a1.525,1.525,0,0,0,1.521,1.521h5.465A5,5,0,0,1,14.321,36.378ZM41.788,33.2a4.8,4.8,0,0,1-4.781,4.752h-20a7.945,7.945,0,0,0,1.967-5.18V7.636h22.81Z" fill="#8230d4" stroke="#fff" stroke-width="0.5"/>
    <path id="패스_1866" data-name="패스 1866" d="M17.438,9.563H32.644v5.322H17.438Z" transform="translate(5.342 1.781)" fill="#8230d4" stroke="#fff" stroke-width="0.5"/>
    <path id="패스_1867" data-name="패스 1867" d="M17.438,15.75H32.644v3.041H17.438Z" transform="translate(5.342 3.957)" fill="#8230d4" stroke="#fff" stroke-width="0.5"/>
    <path id="패스_1868" data-name="패스 1868" d="M17.438,20.25H32.644v3.041H17.438Z" transform="translate(5.342 5.54)" fill="#8230d4" stroke="#fff" stroke-width="0.5"/>
    <path id="패스_1869" data-name="패스 1869" d="M32.842,24.75H17.635s0,3.041-.76,3.041H31.008C32.842,27.791,32.842,25.8,32.842,24.75Z" transform="translate(5.144 7.122)" fill="#8230d4" stroke="#fff" stroke-width="0.5"/>
  </g>
</svg>
