<svg xmlns="http://www.w3.org/2000/svg" width="39.088" height="39.012" viewBox="0 0 39.088 39.012">
  <g id="carton-box" transform="translate(0.574 0.5)">
    <path id="패스_1937" data-name="패스 1937" d="M33.468,32.757H3.376A2.379,2.379,0,0,1,1,30.382V9.792A.792.792,0,0,1,1.792,9h33.26a.792.792,0,0,1,.792.792v20.59A2.379,2.379,0,0,1,33.468,32.757ZM2.584,10.584v19.8a.792.792,0,0,0,.792.792H33.468a.792.792,0,0,0,.792-.792v-19.8Z" transform="translate(0.584 5.254)" fill="#8230d4" stroke="#8230d4" stroke-width="1"/>
    <path id="패스_1938" data-name="패스 1938" d="M20.463,17.609H9.376A2.62,2.62,0,0,1,7,14.8,2.62,2.62,0,0,1,9.376,12H20.463a2.62,2.62,0,0,1,2.376,2.8A2.62,2.62,0,0,1,20.463,17.609ZM9.376,13.87a.948.948,0,0,0,0,1.87H20.463a.948.948,0,0,0,0-1.87Z" transform="translate(4.087 8.459)" fill="#8230d4" stroke="#8230d4" stroke-width="1"/>
    <path id="패스_1939" data-name="패스 1939" d="M37.22,13.5H.792A.792.792,0,0,1,0,12.711V4.792A.792.792,0,0,1,.792,4H37.22a.792.792,0,0,1,.792.792v7.919A.792.792,0,0,1,37.22,13.5ZM1.584,11.919H36.428V5.584H1.584Z" transform="translate(0 2.335)" fill="#8230d4" stroke="#8230d4" stroke-width="1"/>
    <path id="패스_1940" data-name="패스 1940" d="M37.22,7.919a.789.789,0,0,1-.634-.317L32.073,1.584H5.939L1.426,7.6a.792.792,0,1,1-1.267-.95L4.91.317A.791.791,0,0,1,5.543,0H32.469A.791.791,0,0,1,33.1.317l4.751,6.335a.792.792,0,0,1-.634,1.267Z" transform="translate(0 0)" fill="#8230d4" stroke="#8230d4" stroke-width="1"/>
  </g>
</svg>
