<svg id="그룹_1507" data-name="그룹 1507" xmlns="http://www.w3.org/2000/svg" xmlns:xlink="http://www.w3.org/1999/xlink" width="50.02" height="47.41" viewBox="0 0 50.02 47.41">
  <defs>
    <clipPath id="clip-path">
      <path id="패스_2720" data-name="패스 2720" d="M-316.242,629.928c0-10.05-7.885-18.2-17.611-18.2s-17.611,8.147-17.611,18.2,7.885,18.195,17.611,18.195S-316.242,639.977-316.242,629.928Z" transform="translate(351.464 -611.731)" fill="none"/>
    </clipPath>
  </defs>
  <g id="그룹_1475" data-name="그룹 1475" transform="translate(20.616 29.485)">
    <g id="그룹_1474" data-name="그룹 1474" transform="translate(0 0)">
      <rect id="사각형_2705" data-name="사각형 2705" width="26.823" height="5.679" fill="#ffdc85"/>
      <g id="그룹_1473" data-name="그룹 1473" transform="translate(1.265)">
        <rect id="사각형_2706" data-name="사각형 2706" width="1.117" height="5.679" fill="#fcca65"/>
        <rect id="사각형_2707" data-name="사각형 2707" width="1.116" height="5.679" transform="translate(2.318)" fill="#fcca65"/>
        <rect id="사각형_2708" data-name="사각형 2708" width="1.116" height="5.679" transform="translate(4.635)" fill="#fcca65"/>
        <rect id="사각형_2709" data-name="사각형 2709" width="1.116" height="5.679" transform="translate(6.953)" fill="#fcca65"/>
        <rect id="사각형_2710" data-name="사각형 2710" width="1.117" height="5.679" transform="translate(9.271)" fill="#fcca65"/>
        <rect id="사각형_2711" data-name="사각형 2711" width="1.117" height="5.679" transform="translate(11.587)" fill="#fcca65"/>
        <rect id="사각형_2712" data-name="사각형 2712" width="1.116" height="5.679" transform="translate(13.906)" fill="#fcca65"/>
        <rect id="사각형_2713" data-name="사각형 2713" width="1.115" height="5.679" transform="translate(16.225)" fill="#fcca65"/>
        <rect id="사각형_2714" data-name="사각형 2714" width="1.117" height="5.679" transform="translate(18.541)" fill="#fcca65"/>
        <rect id="사각형_2715" data-name="사각형 2715" width="1.115" height="5.679" transform="translate(20.86)" fill="#fcca65"/>
        <rect id="사각형_2716" data-name="사각형 2716" width="1.115" height="5.679" transform="translate(23.178)" fill="#fcca65"/>
      </g>
    </g>
    <rect id="사각형_2717" data-name="사각형 2717" width="26.823" height="0.819" transform="translate(0 5.188)" fill="#f9bd53"/>
  </g>
  <g id="그룹_1478" data-name="그룹 1478" transform="translate(18.994 23.587)">
    <g id="그룹_1477" data-name="그룹 1477" transform="translate(0 0)">
      <rect id="사각형_2718" data-name="사각형 2718" width="26.824" height="5.679" fill="#ffdc85"/>
      <g id="그룹_1476" data-name="그룹 1476" transform="translate(1.265)">
        <rect id="사각형_2719" data-name="사각형 2719" width="1.116" height="5.679" fill="#fcca65"/>
        <rect id="사각형_2720" data-name="사각형 2720" width="1.116" height="5.679" transform="translate(2.318)" fill="#fcca65"/>
        <rect id="사각형_2721" data-name="사각형 2721" width="1.117" height="5.679" transform="translate(4.635)" fill="#fcca65"/>
        <rect id="사각형_2722" data-name="사각형 2722" width="1.116" height="5.679" transform="translate(6.953)" fill="#fcca65"/>
        <rect id="사각형_2723" data-name="사각형 2723" width="1.116" height="5.679" transform="translate(9.271)" fill="#fcca65"/>
        <rect id="사각형_2724" data-name="사각형 2724" width="1.116" height="5.679" transform="translate(11.589)" fill="#fcca65"/>
        <rect id="사각형_2725" data-name="사각형 2725" width="1.116" height="5.679" transform="translate(13.906)" fill="#fcca65"/>
        <rect id="사각형_2726" data-name="사각형 2726" width="1.115" height="5.679" transform="translate(16.224)" fill="#fcca65"/>
        <rect id="사각형_2727" data-name="사각형 2727" width="1.116" height="5.679" transform="translate(18.542)" fill="#fcca65"/>
        <rect id="사각형_2728" data-name="사각형 2728" width="1.118" height="5.679" transform="translate(20.859)" fill="#fcca65"/>
        <rect id="사각형_2729" data-name="사각형 2729" width="1.116" height="5.679" transform="translate(23.177)" fill="#fcca65"/>
      </g>
    </g>
    <rect id="사각형_2730" data-name="사각형 2730" width="26.824" height="0.819" transform="translate(0 5.189)" fill="#f9bd53"/>
  </g>
  <g id="그룹_1481" data-name="그룹 1481" transform="translate(18.994 17.691)">
    <g id="그룹_1480" data-name="그룹 1480">
      <rect id="사각형_2731" data-name="사각형 2731" width="26.824" height="5.678" fill="#ffdc85"/>
      <g id="그룹_1479" data-name="그룹 1479" transform="translate(1.265)">
        <rect id="사각형_2732" data-name="사각형 2732" width="1.116" height="5.678" fill="#fcca65"/>
        <rect id="사각형_2733" data-name="사각형 2733" width="1.116" height="5.678" transform="translate(2.318)" fill="#fcca65"/>
        <rect id="사각형_2734" data-name="사각형 2734" width="1.117" height="5.678" transform="translate(4.635)" fill="#fcca65"/>
        <rect id="사각형_2735" data-name="사각형 2735" width="1.116" height="5.678" transform="translate(6.953)" fill="#fcca65"/>
        <rect id="사각형_2736" data-name="사각형 2736" width="1.116" height="5.678" transform="translate(9.271)" fill="#fcca65"/>
        <rect id="사각형_2737" data-name="사각형 2737" width="1.116" height="5.678" transform="translate(11.589)" fill="#fcca65"/>
        <rect id="사각형_2738" data-name="사각형 2738" width="1.116" height="5.678" transform="translate(13.906)" fill="#fcca65"/>
        <rect id="사각형_2739" data-name="사각형 2739" width="1.115" height="5.678" transform="translate(16.224)" fill="#fcca65"/>
        <rect id="사각형_2740" data-name="사각형 2740" width="1.116" height="5.678" transform="translate(18.542)" fill="#fcca65"/>
        <rect id="사각형_2741" data-name="사각형 2741" width="1.118" height="5.678" transform="translate(20.859)" fill="#fcca65"/>
        <rect id="사각형_2742" data-name="사각형 2742" width="1.116" height="5.678" transform="translate(23.177)" fill="#fcca65"/>
      </g>
    </g>
    <rect id="사각형_2743" data-name="사각형 2743" width="26.824" height="0.82" transform="translate(0 5.187)" fill="#f9bd53"/>
  </g>
  <g id="그룹_1484" data-name="그룹 1484" transform="translate(23.194 11.796)">
    <g id="그룹_1483" data-name="그룹 1483" transform="translate(0 0)">
      <rect id="사각형_2744" data-name="사각형 2744" width="26.824" height="5.677" fill="#ffdc85"/>
      <g id="그룹_1482" data-name="그룹 1482" transform="translate(1.265)">
        <rect id="사각형_2745" data-name="사각형 2745" width="1.116" height="5.677" fill="#fcca65"/>
        <rect id="사각형_2746" data-name="사각형 2746" width="1.115" height="5.677" transform="translate(2.318)" fill="#fcca65"/>
        <rect id="사각형_2747" data-name="사각형 2747" width="1.116" height="5.677" transform="translate(4.636)" fill="#fcca65"/>
        <rect id="사각형_2748" data-name="사각형 2748" width="1.117" height="5.677" transform="translate(6.953)" fill="#fcca65"/>
        <rect id="사각형_2749" data-name="사각형 2749" width="1.117" height="5.677" transform="translate(9.27)" fill="#fcca65"/>
        <rect id="사각형_2750" data-name="사각형 2750" width="1.116" height="5.677" transform="translate(11.589)" fill="#fcca65"/>
        <rect id="사각형_2751" data-name="사각형 2751" width="1.116" height="5.677" transform="translate(13.907)" fill="#fcca65"/>
        <rect id="사각형_2752" data-name="사각형 2752" width="1.115" height="5.677" transform="translate(16.225)" fill="#fcca65"/>
        <rect id="사각형_2753" data-name="사각형 2753" width="1.116" height="5.677" transform="translate(18.542)" fill="#fcca65"/>
        <rect id="사각형_2754" data-name="사각형 2754" width="1.116" height="5.677" transform="translate(20.859)" fill="#fcca65"/>
        <rect id="사각형_2755" data-name="사각형 2755" width="1.116" height="5.677" transform="translate(23.177)" fill="#fcca65"/>
      </g>
    </g>
    <rect id="사각형_2756" data-name="사각형 2756" width="26.824" height="0.819" transform="translate(0 5.185)" fill="#f9bd53"/>
  </g>
  <g id="그룹_1487" data-name="그룹 1487" transform="translate(20.374 0)">
    <g id="그룹_1486" data-name="그룹 1486" transform="translate(0 0)">
      <rect id="사각형_2757" data-name="사각형 2757" width="26.823" height="5.679" fill="#ffdc85"/>
      <g id="그룹_1485" data-name="그룹 1485" transform="translate(1.264)">
        <rect id="사각형_2758" data-name="사각형 2758" width="1.117" height="5.679" fill="#fcca65"/>
        <rect id="사각형_2759" data-name="사각형 2759" width="1.118" height="5.679" transform="translate(2.318)" fill="#fcca65"/>
        <rect id="사각형_2760" data-name="사각형 2760" width="1.116" height="5.679" transform="translate(4.636)" fill="#fcca65"/>
        <rect id="사각형_2761" data-name="사각형 2761" width="1.116" height="5.679" transform="translate(6.954)" fill="#fcca65"/>
        <rect id="사각형_2762" data-name="사각형 2762" width="1.117" height="5.679" transform="translate(9.272)" fill="#fcca65"/>
        <rect id="사각형_2763" data-name="사각형 2763" width="1.116" height="5.679" transform="translate(11.589)" fill="#fcca65"/>
        <rect id="사각형_2764" data-name="사각형 2764" width="1.116" height="5.679" transform="translate(13.907)" fill="#fcca65"/>
        <rect id="사각형_2765" data-name="사각형 2765" width="1.116" height="5.679" transform="translate(16.225)" fill="#fcca65"/>
        <rect id="사각형_2766" data-name="사각형 2766" width="1.115" height="5.679" transform="translate(18.543)" fill="#fcca65"/>
        <rect id="사각형_2767" data-name="사각형 2767" width="1.117" height="5.679" transform="translate(20.86)" fill="#fcca65"/>
        <rect id="사각형_2768" data-name="사각형 2768" width="1.116" height="5.679" transform="translate(23.178)" fill="#fcca65"/>
      </g>
    </g>
    <rect id="사각형_2769" data-name="사각형 2769" width="26.823" height="0.82" transform="translate(0 5.186)" fill="#f9bd53"/>
  </g>
  <g id="그룹_1490" data-name="그룹 1490" transform="translate(22.458 5.898)">
    <g id="그룹_1489" data-name="그룹 1489" transform="translate(0)">
      <rect id="사각형_2770" data-name="사각형 2770" width="26.823" height="5.677" fill="#ffdc85"/>
      <g id="그룹_1488" data-name="그룹 1488" transform="translate(1.266)">
        <rect id="사각형_2771" data-name="사각형 2771" width="1.115" height="5.677" fill="#fcca65"/>
        <rect id="사각형_2772" data-name="사각형 2772" width="1.116" height="5.677" transform="translate(2.317)" fill="#fcca65"/>
        <rect id="사각형_2773" data-name="사각형 2773" width="1.117" height="5.677" transform="translate(4.633)" fill="#fcca65"/>
        <rect id="사각형_2774" data-name="사각형 2774" width="1.116" height="5.677" transform="translate(6.951)" fill="#fcca65"/>
        <rect id="사각형_2775" data-name="사각형 2775" width="1.115" height="5.677" transform="translate(9.27)" fill="#fcca65"/>
        <rect id="사각형_2776" data-name="사각형 2776" width="1.116" height="5.677" transform="translate(11.587)" fill="#fcca65"/>
        <rect id="사각형_2777" data-name="사각형 2777" width="1.117" height="5.677" transform="translate(13.905)" fill="#fcca65"/>
        <rect id="사각형_2778" data-name="사각형 2778" width="1.116" height="5.677" transform="translate(16.223)" fill="#fcca65"/>
        <rect id="사각형_2779" data-name="사각형 2779" width="1.116" height="5.677" transform="translate(18.541)" fill="#fcca65"/>
        <rect id="사각형_2780" data-name="사각형 2780" width="1.117" height="5.677" transform="translate(20.857)" fill="#fcca65"/>
        <rect id="사각형_2781" data-name="사각형 2781" width="1.116" height="5.677" transform="translate(23.177)" fill="#fcca65"/>
      </g>
    </g>
    <rect id="사각형_2782" data-name="사각형 2782" width="26.823" height="0.819" transform="translate(0 5.187)" fill="#f9bd53"/>
  </g>
  <g id="그룹_1496" data-name="그룹 1496" transform="translate(0 11.018)">
    <g id="그룹_1494" data-name="그룹 1494">
      <path id="패스_2719" data-name="패스 2719" d="M-316.242,629.928c0-10.05-7.885-18.2-17.611-18.2s-17.611,8.147-17.611,18.2,7.885,18.195,17.611,18.195S-316.242,639.977-316.242,629.928Z" transform="translate(351.464 -611.731)" fill="#f4ad3b"/>
      <g id="그룹_1493" data-name="그룹 1493">
        <g id="그룹_1492" data-name="그룹 1492" clip-path="url(#clip-path)">
          <g id="그룹_1491" data-name="그룹 1491" transform="translate(-12.793 1.195)">
            <rect id="사각형_2783" data-name="사각형 2783" width="17.08" height="1.584" transform="translate(12.55)" fill="#f9bd53"/>
            <rect id="사각형_2784" data-name="사각형 2784" width="17.08" height="1.582" transform="translate(10.458 2.883)" fill="#f9bd53"/>
            <rect id="사각형_2785" data-name="사각형 2785" width="17.082" height="1.582" transform="translate(8.367 5.761)" fill="#f9bd53"/>
            <rect id="사각형_2786" data-name="사각형 2786" width="17.081" height="1.581" transform="translate(6.275 8.643)" fill="#f9bd53"/>
            <rect id="사각형_2787" data-name="사각형 2787" width="17.08" height="1.584" transform="translate(4.184 11.522)" fill="#f9bd53"/>
            <rect id="사각형_2788" data-name="사각형 2788" width="17.082" height="1.582" transform="translate(2.091 14.404)" fill="#f9bd53"/>
            <rect id="사각형_2789" data-name="사각형 2789" width="17.082" height="1.584" transform="translate(0 17.284)" fill="#f9bd53"/>
            <rect id="사각형_2790" data-name="사각형 2790" width="17.081" height="1.584" transform="translate(2.719 20.164)" fill="#f9bd53"/>
            <rect id="사각형_2791" data-name="사각형 2791" width="17.08" height="1.585" transform="translate(3.765 23.044)" fill="#f9bd53"/>
            <rect id="사각형_2792" data-name="사각형 2792" width="17.082" height="1.585" transform="translate(8.367 25.925)" fill="#f9bd53"/>
            <rect id="사각형_2793" data-name="사각형 2793" width="17.08" height="1.583" transform="translate(12.968 28.807)" fill="#f9bd53"/>
            <rect id="사각형_2794" data-name="사각형 2794" width="17.082" height="1.584" transform="translate(17.569 31.687)" fill="#f9bd53"/>
          </g>
        </g>
      </g>
      <path id="패스_2721" data-name="패스 2721" d="M-307.632,629.928c0-10.05-7.885-18.2-17.611-18.2s-17.611,8.147-17.611,18.2,7.886,18.195,17.611,18.195S-307.632,639.977-307.632,629.928Z" transform="translate(346.186 -611.731)" fill="#ffdc85"/>
      <path id="패스_2722" data-name="패스 2722" d="M-304.9,637.59a13.147,13.147,0,0,0-12.927-13.359,13.148,13.148,0,0,0-12.928,13.359,13.148,13.148,0,0,0,12.928,13.356A13.148,13.148,0,0,0-304.9,637.59Z" transform="translate(338.77 -619.393)" fill="#fcca65"/>
    </g>
    <g id="그룹_1495" data-name="그룹 1495" transform="translate(13.449 12.132)">
      <g id="패스_2723" data-name="패스 2723" transform="translate(313.861 -645.418)" fill="#fff">
        <path d="M -302.9439392089844 657.9777221679688 L -304.2692565917969 657.9777221679688 C -304.4186096191406 657.9777221679688 -304.6623229980469 657.9777221679688 -304.8351135253906 657.7987060546875 C -304.9471130371094 657.6863403320312 -304.987060546875 657.5482788085938 -305.0169677734375 657.4448852539062 L -305.0209655761719 657.4310302734375 L -305.024169921875 657.4169921875 L -306.2950439453125 651.8355102539062 L -306.7362976074219 651.8355102539062 L -308.0071716308594 657.4169921875 L -308.010986328125 657.4337768554688 L -308.0159606933594 657.4502563476562 C -308.0544128417969 657.5778198242188 -308.0978393554688 657.7008666992188 -308.2017211914062 657.8031005859375 C -308.3756408691406 657.9777221679688 -308.6164245605469 657.9777221679688 -308.7626037597656 657.9777221679688 L -310.0878601074219 657.9777221679688 C -310.1984252929688 657.9777221679688 -310.4224853515625 657.9777221679688 -310.5950927734375 657.8306274414062 C -310.7369079589844 657.7120361328125 -310.7886352539062 657.546142578125 -310.8171081542969 657.4547729492188 L -310.8231506347656 657.4354248046875 L -310.8276062011719 657.4155883789062 L -312.0815734863281 651.8355102539062 L -313.641845703125 651.8355102539062 C -313.8251953125 651.8355102539062 -313.9899597167969 651.7738037109375 -314.1201171875 651.6568603515625 C -314.2735290527344 651.5274658203125 -314.3609619140625 651.3389282226562 -314.3609619140625 651.1350708007812 L -314.3609619140625 649.9802856445312 C -314.3609619140625 649.5643310546875 -314.0652465820312 649.2738037109375 -313.641845703125 649.2738037109375 L -312.6448669433594 649.2738037109375 L -313.4377136230469 645.782470703125 C -313.5133056640625 645.5281982421875 -313.4552612304688 645.3425903320312 -313.387451171875 645.2268676757812 C -313.211669921875 644.9180297851562 -312.8437805175781 644.9180297851562 -312.7038269042969 644.9180297851562 L -311.4482421875 644.9180297851562 C -311.33203125 644.9180297851562 -311.1806945800781 644.927734375 -311.0408325195312 645.0036010742188 L -311.0286254882812 645.01025390625 L -311.0168151855469 645.0175170898438 C -310.869140625 645.1085815429688 -310.7640380859375 645.2636108398438 -310.7129211425781 645.4659423828125 L -310.7110900878906 645.4732055664062 L -310.70947265625 645.48046875 L -309.870849609375 649.2738037109375 L -308.8130493164062 649.2738037109375 L -307.9442443847656 645.4769287109375 L -307.9389953613281 645.4539184570312 L -307.9316101074219 645.4315185546875 C -307.8916931152344 645.310791015625 -307.8281860351562 645.1583251953125 -307.6901550292969 645.0498657226562 L -307.6653442382812 645.0303955078125 L -307.6383056640625 645.0142211914062 C -307.4960327148438 644.928955078125 -307.3414611816406 644.9180297851562 -307.2227172851562 644.9180297851562 L -305.8117980957031 644.9180297851562 C -305.6932067871094 644.9180297851562 -305.5388793945312 644.9287719726562 -305.3969421386719 645.0127563476562 L -305.3743896484375 645.0260620117188 L -305.3533630371094 645.0416870117188 C -305.205078125 645.15185546875 -305.1403198242188 645.3118286132812 -305.1004943847656 645.4389038085938 L -305.0946044921875 645.4577026367188 L -305.0902099609375 645.4768676757812 L -304.2210388183594 649.2738037109375 L -303.1599731445312 649.2738037109375 L -302.3251647949219 645.48095703125 L -302.322265625 645.4678344726562 L -302.3186950683594 645.4548950195312 C -302.2629089355469 645.2536010742188 -302.1612243652344 645.1063842773438 -302.0164489746094 645.0172729492188 L -302.0011901855469 645.0079345703125 L -301.9852905273438 644.9996337890625 C -301.8464050292969 644.9273071289062 -301.6993408203125 644.9180297851562 -301.5867614746094 644.9180297851562 L -300.3261413574219 644.9180297851562 C -300.1893615722656 644.9180297851562 -299.8260192871094 644.9180297851562 -299.6455383300781 645.2210083007812 L -299.63720703125 645.2350463867188 L -299.6297912597656 645.24951171875 C -299.5527038574219 645.4005737304688 -299.5391235351562 645.5762939453125 -299.5893859863281 645.7719116210938 L -300.3893127441406 649.2738037109375 L -299.3725891113281 649.2738037109375 C -299.1994018554688 649.2738037109375 -299.0354919433594 649.3352661132812 -298.8985900878906 649.4515380859375 L -298.8850402832031 649.4630737304688 L -298.8723449707031 649.4755249023438 C -298.6921997070312 649.6519775390625 -298.6543884277344 649.847412109375 -298.6543884277344 649.9802856445312 L -298.6543884277344 651.1350708007812 C -298.6543884277344 651.3405151367188 -298.7434692382812 651.5314331054688 -298.8992614746094 651.6611938476562 C -299.0317993164062 651.7752685546875 -299.1951599121094 651.8355102539062 -299.3725891113281 651.8355102539062 L -300.9493103027344 651.8355102539062 L -302.2037048339844 657.4156494140625 L -302.2060852050781 657.42626953125 L -302.2089538574219 657.436767578125 C -302.258056640625 657.6179809570312 -302.3310241699219 657.744140625 -302.438232421875 657.8329467773438 C -302.5911865234375 657.96044921875 -302.7795715332031 657.9777221679688 -302.9439392089844 657.9777221679688 Z" stroke="none"/>
        <path d="M -312.7038269042969 645.4180297851562 C -312.84912109375 645.4180297851562 -312.9329223632812 645.4363403320312 -312.9543762207031 645.4768676757812 C -312.9794311523438 645.5169677734375 -312.9794311523438 645.5765380859375 -312.9543762207031 645.6530151367188 L -312.0185852050781 649.7738037109375 L -313.641845703125 649.7738037109375 C -313.7880859375 649.7738037109375 -313.8609619140625 649.8458862304688 -313.8609619140625 649.9802856445312 L -313.8609619140625 651.1350708007812 C -313.8609619140625 651.1902465820312 -313.8386840820312 651.2431030273438 -313.7917785644531 651.2794799804688 C -313.7502746582031 651.3196411132812 -313.6983947753906 651.3355102539062 -313.641845703125 651.3355102539062 L -311.6814575195312 651.3355102539062 L -310.3397827148438 657.3059692382812 C -310.315673828125 657.38330078125 -310.2951354980469 657.4317626953125 -310.2723693847656 657.4486083984375 C -310.25146484375 657.4690551757812 -310.1871337890625 657.4777221679688 -310.0878601074219 657.4777221679688 L -308.7626037597656 657.4777221679688 C -308.6405334472656 657.4777221679688 -308.5726318359375 657.4690551757812 -308.554443359375 657.4486083984375 C -308.5357055664062 657.4317626953125 -308.5180053710938 657.38330078125 -308.4946899414062 657.3059692382812 L -307.13525390625 651.3355102539062 L -305.8960876464844 651.3355102539062 L -304.5366516113281 657.3059692382812 C -304.5142822265625 657.38330078125 -304.4979553222656 657.4317626953125 -304.4778442382812 657.4486083984375 C -304.4614868164062 657.4690551757812 -304.3926696777344 657.4777221679688 -304.2692565917969 657.4777221679688 L -302.9439392089844 657.4777221679688 C -302.8450927734375 657.4777221679688 -302.7821960449219 657.4690551757812 -302.758056640625 657.4486083984375 C -302.7371215820312 657.4317626953125 -302.7124938964844 657.38330078125 -302.6915283203125 657.3059692382812 L -301.3493957519531 651.3355102539062 L -299.3725891113281 651.3355102539062 C -299.3152465820312 651.3355102539062 -299.2673950195312 651.3196411132812 -299.2222595214844 651.2794799804688 C -299.1767272949219 651.2431030273438 -299.1543884277344 651.1902465820312 -299.1543884277344 651.1350708007812 L -299.1543884277344 649.9802856445312 C -299.1543884277344 649.9214477539062 -299.1767272949219 649.8772583007812 -299.2222595214844 649.8326416015625 C -299.2673950195312 649.7943115234375 -299.3152465820312 649.7738037109375 -299.3725891113281 649.7738037109375 L -301.0163879394531 649.7738037109375 L -300.0751342773438 645.6530151367188 C -300.0546569824219 645.5765380859375 -300.0546569824219 645.5169677734375 -300.0751342773438 645.4768676757812 C -300.0992736816406 645.4363403320312 -300.18310546875 645.4180297851562 -300.3261413574219 645.4180297851562 L -301.5867614746094 645.4180297851562 C -301.6642150878906 645.4180297851562 -301.7202758789062 645.4253540039062 -301.75439453125 645.443115234375 C -301.7863159179688 645.4627685546875 -301.8158569335938 645.5126953125 -301.8368530273438 645.5884399414062 L -302.758056640625 649.7738037109375 L -304.6195068359375 649.7738037109375 L -305.5776062011719 645.5884399414062 C -305.6013488769531 645.5126953125 -305.625 645.4627685546875 -305.6514587402344 645.443115234375 C -305.6814880371094 645.4253540039062 -305.7330017089844 645.4180297851562 -305.8117980957031 645.4180297851562 L -307.2227172851562 645.4180297851562 C -307.2978820800781 645.4180297851562 -307.3516845703125 645.4253540039062 -307.3813171386719 645.443115234375 C -307.4063415527344 645.4627685546875 -307.4318237304688 645.5126953125 -307.4568481445312 645.5884399414062 L -308.41455078125 649.7738037109375 L -310.2723693847656 649.7738037109375 L -311.1976928710938 645.5884399414062 C -311.2168273925781 645.5126953125 -311.2473754882812 645.4627685546875 -311.2792358398438 645.443115234375 C -311.3119812011719 645.4253540039062 -311.3685302734375 645.4180297851562 -311.4482421875 645.4180297851562 L -312.7038269042969 645.4180297851562 M -306.2646484375 649.7738037109375 L -306.7671508789062 649.7738037109375 L -306.5170593261719 648.6404418945312 L -306.2646484375 649.7738037109375 M -309.3689880371094 653.9374389648438 L -309.9357299804688 651.3355102539062 L -308.7816772460938 651.3355102539062 L -309.3689880371094 653.9374389648438 M -303.6660461425781 653.9374389648438 L -304.2546081542969 651.3355102539062 L -303.0938110351562 651.3355102539062 L -303.6660461425781 653.9374389648438 M -312.7038269042969 644.4180297851562 L -311.4482421875 644.4180297851562 C -311.28662109375 644.4180297851562 -311.0438232421875 644.4331665039062 -310.8024291992188 644.5640869140625 L -310.7779846191406 644.577392578125 L -310.7543029785156 644.5919799804688 C -310.5726013183594 644.7040405273438 -310.3338012695312 644.9254150390625 -310.2281799316406 645.3434448242188 L -310.2244873046875 645.3579711914062 L -310.2212829589844 645.37255859375 L -309.4692993164062 648.7738037109375 L -309.2115783691406 648.7738037109375 L -308.4316711425781 645.3653564453125 L -308.421142578125 645.3193969726562 L -308.4063415527344 645.274658203125 C -308.3492431640625 645.1018676757812 -308.244873046875 644.8497924804688 -307.9989624023438 644.6566772460938 L -307.9494018554688 644.6177368164062 L -307.8952941894531 644.5853271484375 C -307.6450500488281 644.4353637695312 -307.3916015625 644.4180297851562 -307.2227172851562 644.4180297851562 L -305.8117980957031 644.4180297851562 C -305.6437377929688 644.4180297851562 -305.3915100097656 644.43505859375 -305.1424255371094 644.5823974609375 L -305.0973205566406 644.6090698242188 L -305.0552368164062 644.6402587890625 C -304.7883911132812 644.8384399414062 -304.6809692382812 645.1056518554688 -304.6233825683594 645.2893676757812 L -304.6116027832031 645.326904296875 L -304.6028137207031 645.3652954101562 L -303.8225708007812 648.7738037109375 L -303.5618896484375 648.7738037109375 L -302.8134765625 645.3734741210938 L -302.8077087402344 645.3472290039062 L -302.800537109375 645.3213500976562 C -302.6876831054688 644.9141845703125 -302.454345703125 644.69970703125 -302.2785034179688 644.5914916992188 L -302.2479858398438 644.5726928710938 L -302.2162170410156 644.55615234375 C -301.9784545898438 644.432373046875 -301.7431030273438 644.4180297851562 -301.5867614746094 644.4180297851562 L -300.3261413574219 644.4180297851562 C -299.8057250976562 644.4180297851562 -299.4322204589844 644.6021118164062 -299.2159729003906 644.9651489257812 L -299.1992797851562 644.9931640625 L -299.1844787597656 645.022216796875 C -299.0924072265625 645.2025146484375 -299.0047912597656 645.4982299804688 -299.1033630371094 645.889404296875 L -299.76220703125 648.7738037109375 L -299.3725891113281 648.7738037109375 C -299.0792541503906 648.7738037109375 -298.8034057617188 648.8764038085938 -298.5749206542969 649.0704345703125 L -298.5478210449219 649.093505859375 L -298.5223999023438 649.1183471679688 C -298.2182312011719 649.4163818359375 -298.1543884277344 649.7515869140625 -298.1543884277344 649.9802856445312 L -298.1543884277344 651.1350708007812 C -298.1543884277344 651.4884643554688 -298.3076477050781 651.8175659179688 -298.5758972167969 652.0426025390625 C -298.7997741699219 652.2343139648438 -299.07470703125 652.3355102539062 -299.3725891113281 652.3355102539062 L -300.5492553710938 652.3355102539062 L -301.7158813476562 657.5252685546875 L -301.7206726074219 657.5465698242188 L -301.7263488769531 657.5675659179688 C -301.8036499023438 657.8527221679688 -301.934326171875 658.0672607421875 -302.1257629394531 658.2233276367188 C -302.4369506835938 658.4777221679688 -302.8043518066406 658.4777221679688 -302.9439392089844 658.4777221679688 L -304.2692565917969 658.4777221679688 C -304.4564514160156 658.4777221679688 -304.8794860839844 658.4777221679688 -305.1982727050781 658.142578125 C -305.3936157226562 657.942138671875 -305.4598083496094 657.7133178710938 -305.4972534179688 657.5838623046875 L -305.5052795410156 657.55615234375 L -305.5116882324219 657.5279541015625 L -306.5156555175781 653.11865234375 L -307.5196533203125 657.5279541015625 L -307.5273132324219 657.5616455078125 L -307.5372924804688 657.5946655273438 C -307.5756530761719 657.7219848632812 -307.6449279785156 657.95166015625 -307.8422546386719 658.1506958007812 C -308.16259765625 658.4777221679688 -308.5804443359375 658.4777221679688 -308.7626037597656 658.4777221679688 L -310.0878601074219 658.4777221679688 C -310.2336120605469 658.4777221679688 -310.6080017089844 658.4777221679688 -310.920166015625 658.2105712890625 C -311.1713256835938 657.9985961914062 -311.2566528320312 657.724853515625 -311.2944641113281 657.6036376953125 L -311.3065490722656 657.5648193359375 L -311.3154602050781 657.5252075195312 L -312.481689453125 652.3355102539062 L -313.641845703125 652.3355102539062 C -313.9432373046875 652.3355102539062 -314.2268371582031 652.2294311523438 -314.4465942382812 652.0355834960938 C -314.7106323242188 651.8110961914062 -314.8609619140625 651.4859008789062 -314.8609619140625 651.1350708007812 L -314.8609619140625 649.9802856445312 C -314.8609619140625 649.29248046875 -314.3368530273438 648.7738037109375 -313.641845703125 648.7738037109375 L -313.2711486816406 648.7738037109375 L -313.9219970703125 645.90771484375 C -314.0435485839844 645.479736328125 -313.92333984375 645.1566162109375 -313.8234558105469 644.9820556640625 C -313.6743774414062 644.718505859375 -313.3603515625 644.4180297851562 -312.7038269042969 644.4180297851562 Z" stroke="none" fill="#ffbe57"/>
      </g>
    </g>
  </g>
</svg>
