<svg xmlns="http://www.w3.org/2000/svg" width="34.924" height="38.012" viewBox="0 0 34.924 38.012">
  <g id="contract" transform="translate(-20.795)">
    <path id="패스_1922" data-name="패스 1922" d="M50.343,23.8V7.085L43.939,0H20.8V38.012h27.72A7.226,7.226,0,0,0,50.343,23.8ZM43.964,3.349l2.764,3.058H43.964ZM23.022,2.227H41.736V8.634h6.379V23.576a7.225,7.225,0,0,0-4.8,12.209h-20.3ZM48.515,35.784a5,5,0,1,1,4.976-5A4.992,4.992,0,0,1,48.515,35.784Z" transform="translate(0)" fill="#8230d4"/>
    <path id="패스_1923" data-name="패스 1923" d="M93.19,301.565h11.942v2.227H93.19Z" transform="translate(-67.02 -279.176)" fill="#8230d4"/>
    <path id="패스_1924" data-name="패스 1924" d="M93.19,241.066h11.942v2.227H93.19Z" transform="translate(-67.02 -223.169)" fill="#8230d4"/>
    <path id="패스_1925" data-name="패스 1925" d="M93.19,361.565h11.942v2.227H93.19Z" transform="translate(-67.02 -334.722)" fill="#8230d4"/>
    <path id="패스_1926" data-name="패스 1926" d="M379.175,399.7H381.4v2.227h-2.227Z" transform="translate(-331.773 -370.029)" fill="#8230d4"/>
    <path id="패스_1927" data-name="패스 1927" d="M102.437,99.828l-1.575-1.575-4.217,4.217-1.952-1.952-1.575,1.575,3.527,3.527Z" transform="translate(-66.955 -90.959)" fill="#8230d4"/>
  </g>
</svg>
