<svg id="partners" xmlns="http://www.w3.org/2000/svg" width="37.941" height="37.941" viewBox="0 0 37.941 37.941">
  <path id="패스_1928" data-name="패스 1928" d="M36.362,23.324a7.8,7.8,0,0,0-2.538-2.148,6.038,6.038,0,0,0,.828-3.059v-2.85a6.079,6.079,0,0,0-9.4-5.092V4.44A4.445,4.445,0,0,0,20.815,0H10.772V4.485a4.439,4.439,0,0,0,1.9,3.639v2.042a6.079,6.079,0,0,0-9.382,5.1v2.85a6.038,6.038,0,0,0,.828,3.059A7.794,7.794,0,0,0,1.58,23.324,7.652,7.652,0,0,0,0,28v9.937H37.941V28a7.652,7.652,0,0,0-1.58-4.68ZM13,2.223h7.82A2.22,2.22,0,0,1,23.033,4.44V6.7h-7.82A2.22,2.22,0,0,1,13,4.485Zm10.037,6.7v3.012a4.069,4.069,0,0,1-8.138,0V8.914q.158.011.318.011h7.82ZM8.274,35.718H2.223V28a5.53,5.53,0,0,1,3.416-5.091A6.055,6.055,0,0,0,8.274,24.1V35.718Zm0-14.075v.17a3.861,3.861,0,0,1-2.761-3.7v-2.85A3.862,3.862,0,0,1,13,13.932a6.268,6.268,0,0,0,.685,1.418,6.373,6.373,0,0,0-5.406,6.293Zm9.578,14.075H10.5V21.643a4.146,4.146,0,0,1,3.454-4.085,24.6,24.6,0,0,0,.24,2.709,15.376,15.376,0,0,0,3.661,8.416ZM16.18,17.578a6.288,6.288,0,0,0,5.57,0c-.089,2.369-.6,6.233-2.786,9C16.782,23.813,16.271,19.945,16.18,17.578Zm11.25,18.14H20.075V28.684a15.384,15.384,0,0,0,3.661-8.422,24.628,24.628,0,0,0,.24-2.7,4.146,4.146,0,0,1,3.454,4.085ZM24.247,15.35a6.267,6.267,0,0,0,.68-1.405l.012,0a3.862,3.862,0,0,1,7.49,1.318v2.85a3.861,3.861,0,0,1-2.775,3.7v-.174A6.373,6.373,0,0,0,24.247,15.35ZM35.718,35.718H29.653V24.1A6.056,6.056,0,0,0,32.3,22.914,5.53,5.53,0,0,1,35.718,28Z" transform="translate(0 0)" fill="#8230d4"/>
</svg>
