<svg id="share" xmlns="http://www.w3.org/2000/svg" width="64" height="56.691" viewBox="0 0 64 56.691">
  <g id="그룹_1243" data-name="그룹 1243" transform="translate(18.391 0)">
    <g id="그룹_1242" data-name="그룹 1242" transform="translate(0 0)">
      <path id="패스_2191" data-name="패스 2191" d="M216.137,47.219,198.829,30a2.61,2.61,0,0,0-4.451,1.849v7.818c-8.58.567-12.865,4.125-13.639,4.833a26.16,26.16,0,0,0-9.215,23.612c.005.035.01.07.016.105l.348,2a2.609,2.609,0,0,0,4.808.9l1.043-1.738c5.7-9.481,12.745-11.007,16.638-11.02v8.111a2.61,2.61,0,0,0,4.46,1.84l17.308-17.4A2.61,2.61,0,0,0,216.137,47.219ZM199.6,60.142v-4.2a2.608,2.608,0,0,0-2.194-2.576c-3.011-.484-12.489-1.068-20.673,8.484a20.643,20.643,0,0,1,7.4-13.378,1.636,1.636,0,0,0,.142-.127c.038-.036,3.93-3.536,12.458-3.536h.261A2.609,2.609,0,0,0,199.6,42.2V38.124l11.01,10.953Z" transform="translate(-171.297 -29.237)" fill="#8230d4"/>
    </g>
  </g>
  <g id="그룹_1245" data-name="그룹 1245" transform="translate(-0.001 7.982)">
    <g id="그룹_1244" data-name="그룹 1244">
      <path id="패스_2192" data-name="패스 2192" d="M53.931,152.392A2.518,2.518,0,0,0,51.516,155v7.393H4.83V124.124H19.319a2.617,2.617,0,0,0,0-5.219H2.415A2.517,2.517,0,0,0,0,121.514V165a2.518,2.518,0,0,0,2.415,2.609H53.931A2.518,2.518,0,0,0,56.346,165V155A2.518,2.518,0,0,0,53.931,152.392Z" transform="translate(0 -118.905)" fill="#8230d4"/>
    </g>
  </g>
</svg>
