<svg xmlns="http://www.w3.org/2000/svg" width="39.816" height="39.402" viewBox="0 0 39.816 39.402">
  <g id="그룹_1509" data-name="그룹 1509" transform="translate(-942.75 -657.848)">
    <g id="그룹_1180" data-name="그룹 1180" transform="translate(943 672.094)">
      <g id="그룹_1179" data-name="그룹 1179">
        <path id="패스_1929" data-name="패스 1929" d="M36.985,184.332H2.332A2.335,2.335,0,0,0,0,186.664v20.242a2.335,2.335,0,0,0,2.332,2.332H36.985a2.335,2.335,0,0,0,2.332-2.332V186.664A2.335,2.335,0,0,0,36.985,184.332Zm-.466,22.107H2.8V187.13h33.72v19.309Z" transform="translate(0 -184.332)" fill="#8230d4" stroke="#fff" stroke-width="0.5"/>
      </g>
    </g>
    <g id="그룹_1182" data-name="그룹 1182" transform="translate(944.492 673.495)">
      <g id="그룹_1181" data-name="그룹 1181">
        <path id="패스_1930" data-name="패스 1930" d="M25.218,202.553V204a4.342,4.342,0,0,1-4.337,4.338H19.435v2.8h1.446A7.144,7.144,0,0,0,28.017,204v-1.446Z" transform="translate(-19.435 -202.553)" fill="#8230d4"/>
      </g>
    </g>
    <g id="그룹_1184" data-name="그룹 1184" transform="translate(972.196 673.495)">
      <g id="그룹_1183" data-name="그룹 1183">
        <path id="패스_1931" data-name="패스 1931" d="M387.334,208.336A4.343,4.343,0,0,1,383,204v-1.446h-2.8V204a7.144,7.144,0,0,0,7.136,7.136h1.446v-2.8Z" transform="translate(-380.198 -202.553)" fill="#8230d4"/>
      </g>
    </g>
    <g id="그룹_1186" data-name="그룹 1186" transform="translate(972.197 687.019)">
      <g id="그룹_1185" data-name="그룹 1185">
        <path id="패스_1932" data-name="패스 1932" d="M387.34,378.68a7.144,7.144,0,0,0-7.136,7.136v1.446H383v-1.446a4.343,4.343,0,0,1,4.338-4.337h1.446v-2.8Z" transform="translate(-380.204 -378.68)" fill="#8230d4"/>
      </g>
    </g>
    <g id="그룹_1188" data-name="그룹 1188" transform="translate(944.492 687.019)">
      <g id="그룹_1187" data-name="그룹 1187">
        <path id="패스_1933" data-name="패스 1933" d="M20.881,378.68H19.435v2.8h1.446a4.342,4.342,0,0,1,4.337,4.337v1.446h2.8v-1.446A7.144,7.144,0,0,0,20.881,378.68Z" transform="translate(-19.435 -378.68)" fill="#8230d4"/>
      </g>
    </g>
    <g id="그룹_1190" data-name="그룹 1190" transform="translate(956.386 678.298)">
      <g id="그룹_1189" data-name="그룹 1189">
        <path id="패스_1934" data-name="패스 1934" d="M180.561,265.11a6.25,6.25,0,1,0,6.25,6.25A6.257,6.257,0,0,0,180.561,265.11Zm0,9.7a3.451,3.451,0,1,1,3.451-3.451A3.455,3.455,0,0,1,180.561,274.811Z" transform="translate(-174.311 -265.11)" fill="#8230d4" stroke="#fff" stroke-width="0.5"/>
      </g>
    </g>
    <g id="그룹_1192" data-name="그룹 1192" transform="translate(949.437 658.195)">
      <g id="그룹_1191" data-name="그룹 1191" transform="translate(0 0)">
        <path id="패스_1935" data-name="패스 1935" d="M109.483,3.861a1.4,1.4,0,0,0-1.968-.21L99.5,10.124,93.11,4.269a1.4,1.4,0,0,0-1.99.1l-6.949,7.789a1.4,1.4,0,1,0,2.088,1.863L92.264,7.29,98.495,13a1.4,1.4,0,0,0,1.825.057l8.955-7.229A1.4,1.4,0,0,0,109.483,3.861Z" transform="translate(-83.816 -3.341)" fill="#8230d4" stroke="#fff" stroke-width="0.5"/>
      </g>
    </g>
    <g id="그룹_1194" data-name="그룹 1194" transform="translate(965.294 658.195)">
      <g id="그룹_1193" data-name="그룹 1193">
        <path id="패스_1936" data-name="패스 1936" d="M299.037,3.34h-7.322a1.4,1.4,0,1,0,0,2.8h5.923v5.97a1.4,1.4,0,0,0,2.8,0V4.739A1.4,1.4,0,0,0,299.037,3.34Z" transform="translate(-290.315 -3.34)" fill="#8230d4" stroke="#fff" stroke-width="0.5"/>
      </g>
    </g>
  </g>
</svg>
