<svg xmlns="http://www.w3.org/2000/svg" width="200.633" height="38.148" viewBox="0 0 200.633 38.148">
  <path id="패스_2725" data-name="패스 2725" d="M1.683-17.952c0,10.71,7.446,18.207,18,18.207C28.2.255,34.629-4.488,36.669-12.24H27.081a7.887,7.887,0,0,1-7.5,4.59c-5.355,0-9.027-3.978-9.027-10.3s3.672-10.3,9.027-10.3a7.887,7.887,0,0,1,7.5,4.59h9.588C34.629-31.416,28.2-36.21,19.686-36.21,9.129-36.21,1.683-28.662,1.683-17.952Zm47.532,4.743c0-4.9,2.4-6.324,6.528-6.324h2.4v-9.231a10.609,10.609,0,0,0-8.925,5.049v-4.743H40.494V0h8.721ZM88.893-28.458H80.172v15.453c0,3.876-2.142,6.018-5.508,6.018-3.264,0-5.457-2.142-5.457-6.018V-28.458h-8.67v16.626c0,7.6,4.437,12.138,11.016,12.138a10.369,10.369,0,0,0,8.619-4.182V0h8.721ZM132.855,0h8.67V-16.626c0-7.65-4.539-12.138-11.577-12.138a11.447,11.447,0,0,0-9.588,5.3,10.63,10.63,0,0,0-9.69-5.3,10.04,10.04,0,0,0-8.313,3.876v-3.57H93.636V0h8.721V-15.453c0-3.723,2.142-5.763,5.457-5.763s5.457,2.04,5.457,5.763V0h8.67V-15.453c0-3.723,2.142-5.763,5.457-5.763s5.457,2.04,5.457,5.763Zm21.981-24.429V-37.74h-8.721V0h8.721V-3.978A10,10,0,0,0,163.608.408c6.987,0,12.546-5.712,12.546-14.688s-5.508-14.586-12.546-14.586A10.047,10.047,0,0,0,154.836-24.429ZM167.28-14.28c0,4.539-2.958,7.089-6.273,7.089-3.264,0-6.222-2.5-6.222-7.038s2.958-7.038,6.222-7.038C164.322-21.267,167.28-18.819,167.28-14.28Zm35.037,6.018c-.153-10.608-15.555-7.4-15.555-11.934,0-1.377,1.122-2.193,3.162-2.193,2.448,0,3.927,1.275,4.182,3.213h8.058c-.561-5.61-4.641-9.69-11.985-9.69-7.446,0-11.577,3.978-11.577,8.823,0,10.455,15.5,7.14,15.5,11.73,0,1.275-1.173,2.295-3.417,2.295-2.4,0-4.182-1.326-4.386-3.315h-8.619c.408,5.508,5.508,9.741,13.107,9.741C197.931.408,202.317-3.315,202.317-8.262Z" transform="translate(-1.684 37.74)" fill="#7900f2"/>
</svg>
